<svg width="66" height="61" viewBox="0 0 66 61" fill="none" xmlns="http://www.w3.org/2000/svg">
<g clip-path="url(#clip0_157361_55)">
<path fill-rule="evenodd" clip-rule="evenodd" d="M63.6806 16.6927L58 24.6372L52.3195 16.6927H55.4167C55.1806 10.7899 50.3056 6.06772 44.3473 6.06772C39.3195 6.06772 35.0556 9.44272 33.7084 14.0399C32.0695 13.5122 30.3751 13.1788 28.6528 13.026C28.8473 12.2899 29.0973 11.5538 29.4028 10.8455C30.2223 8.91494 31.3889 7.17883 32.8751 5.69272C34.3612 4.20661 36.0973 3.02605 38.0278 2.2205C40.0278 1.35939 42.1528 0.928833 44.3473 0.928833C46.5417 0.928833 48.6667 1.35939 50.6667 2.20661C52.5973 3.02605 54.3334 4.19272 55.8195 5.67883C57.3056 7.16494 58.4723 8.90105 59.2917 10.8316C60.0834 12.6927 60.5139 14.6649 60.5556 16.6927H63.6806Z" fill="white"/>
<path fill-rule="evenodd" clip-rule="evenodd" d="M55.7362 60.9289V57.5122H36.1528C36.2917 57.4427 36.4306 57.3872 36.5695 57.3177C38.6945 56.3038 40.6528 54.9844 42.4028 53.3733C42.6389 53.1511 42.8612 52.9427 43.0695 52.7344C43.3056 52.4983 43.5556 52.2483 43.7917 51.9844C44.0695 51.6788 44.3473 51.3594 44.5973 51.04H55.7362V47.6233L65.0417 54.2761L55.7362 60.9289Z" fill="white"/>
<path fill-rule="evenodd" clip-rule="evenodd" d="M48.5138 36.2483C48.5138 39.2066 47.9305 42.0816 46.7916 44.79C45.8193 47.0955 44.4582 49.2066 42.7638 51.0539C42.5416 51.29 42.3193 51.5261 42.0971 51.7622C41.8888 51.9705 41.6805 52.165 41.4721 52.3733C39.8332 53.8872 37.9999 55.1233 35.9999 56.0816C35.7221 56.2205 35.4305 56.3455 35.1388 56.4705C35.1249 56.4705 35.1249 56.4844 35.111 56.4844C33.4443 57.1927 31.6527 57.54 29.8332 57.54H0.944336V51.0816H27.7638C35.8749 51.0816 42.5277 44.5955 42.6388 36.4844C42.6388 36.415 42.6388 36.3455 42.6388 36.2761C42.6388 27.415 35.4443 20.2205 26.5832 20.2205C17.7221 20.1927 10.5277 27.3733 10.5277 36.2483H14.2499L7.59712 45.5539L0.944336 36.2483H4.66656C4.66656 33.29 5.24989 30.415 6.38878 27.7066C7.49989 25.0955 9.06934 22.7483 11.0832 20.7344C13.0971 18.7205 15.4443 17.1372 18.0555 16.04C20.7638 14.9011 23.6388 14.3177 26.5971 14.3177C27.1943 14.3177 27.7777 14.3455 28.361 14.3872C30.0832 14.5261 31.7638 14.8594 33.4027 15.4011C33.986 15.5955 34.5555 15.8039 35.1249 16.0539C37.736 17.165 40.0832 18.7344 42.0971 20.7483C44.111 22.7622 45.6943 25.1094 46.7916 27.7205C47.9305 30.415 48.5138 33.29 48.5138 36.2483Z" fill="white"/>
</g>
<defs>
<clipPath id="clip0_157361_55">
<rect width="64.1111" height="60" fill="white" transform="translate(0.944336 0.928833)"/>
</clipPath>
</defs>
</svg>
