<svg width="77" height="77" viewBox="0 0 77 77" fill="none" xmlns="http://www.w3.org/2000/svg">
<g clip-path="url(#clip0_157361_617)">
<path d="M63.9012 32.604L39.5508 46.2982C39.1126 46.5527 38.5711 46.5527 38.12 46.2982L13.7696 32.604C12.8157 32.0694 12.8157 30.7076 13.7696 30.1604L38.12 16.4662C38.5583 16.2116 39.0997 16.2116 39.5508 16.4662L63.9012 30.1604C64.8551 30.6949 64.8551 32.0567 63.9012 32.604Z" fill="white"/>
<path d="M59.686 37.2111V48.4999C59.686 49.009 59.4153 49.4672 58.9641 49.7217L39.5508 60.6415C39.1126 60.896 38.5712 60.896 38.12 60.6415L18.7067 49.7217C18.2556 49.4672 17.9849 49.009 17.9849 48.4999V37.2111L28.7485 43.2564L38.12 48.5381C38.5583 48.7927 39.0997 48.7927 39.5508 48.5381L48.9223 43.2564L59.686 37.2111Z" fill="white"/>
<path d="M71.0295 18.5789L71.6998 18.1207C72.5119 17.5607 72.4088 16.3517 71.5193 15.9317L66.1826 13.4245C65.2803 13.0045 64.2619 13.7044 64.3393 14.6844L64.8549 20.5006C64.9451 21.4679 66.0666 21.9897 66.8787 21.4297L67.8326 20.7806C76.3147 34.2712 74.033 52.2417 62.1737 63.1869C50.5077 73.9539 32.5253 75.2648 19.4155 66.305C18.539 65.7068 17.3273 65.9232 16.7214 66.7886C16.1155 67.654 16.3347 68.8504 17.2112 69.4486C23.6952 73.8775 31.2362 76.0538 38.7643 76.0538C48.1874 76.0538 57.5846 72.643 64.8162 65.9741C78.0549 53.7435 80.6072 33.6221 71.0295 18.5789Z" fill="white"/>
<path d="M60.4593 7.65913C45.8671 -2.3188 25.848 -0.855204 12.8543 11.1336C-0.719533 23.6697 -3.15586 43.7019 6.96327 58.9997L6.02225 59.636C5.21014 60.196 5.31327 61.4051 6.20272 61.8251L11.5394 64.3323C12.4418 64.7523 13.4601 64.0523 13.3828 63.0723L12.8672 57.2561C12.7769 56.2889 11.6554 55.7671 10.8433 56.327L10.1472 56.8107C1.1496 43.0783 3.32812 25.146 15.4968 13.9208C27.1628 3.15379 45.1452 1.83018 58.255 10.8027C59.1315 11.4009 60.3433 11.1845 60.9491 10.3191C61.555 9.45364 61.3358 8.2573 60.4593 7.65913Z" fill="white"/>
</g>
<defs>
<clipPath id="clip0_157361_617">
<rect width="76.0417" height="75" fill="white" transform="translate(0.75 1.05383)"/>
</clipPath>
</defs>
</svg>
