<svg width="54" height="61" viewBox="0 0 54 61" fill="none" xmlns="http://www.w3.org/2000/svg">
<path d="M0.511539 0.512648C0.511539 0.745244 0.500957 0.903833 0.511539 1.06242C0.913636 5.46061 1.31573 9.8588 1.70725 14.2676C2.25749 20.5054 2.79714 26.7432 3.34738 32.9704C3.97169 39.9695 4.60658 46.958 5.20972 53.957C5.25205 54.4645 5.43194 54.6865 5.9081 54.8134C12.6803 56.6741 19.4313 58.5455 26.2034 60.3957C26.6584 60.5226 27.2087 60.5437 27.6637 60.4168C34.457 58.5561 41.2397 56.6636 48.033 54.7922C48.5515 54.6442 48.7314 54.4116 48.7738 53.883C48.9854 51.2398 49.2393 48.5861 49.4721 45.943C49.8636 41.5659 50.2446 37.1889 50.6361 32.8119C51.0911 27.6736 51.5567 22.5459 52.0117 17.4076C52.3503 13.5803 52.7101 9.76365 53.0487 5.93638C53.2074 4.13904 53.345 2.3417 53.4931 0.502075H0.511539V0.512648ZM43.2714 15.7794C42.9222 19.649 42.573 23.5291 42.2238 27.3987C41.8217 31.8498 41.4196 36.3008 41.0175 40.7413C40.9011 42.0206 40.7318 43.2998 40.7001 44.5897C40.6789 45.2769 40.3826 45.4566 39.8112 45.6152C35.7268 46.7148 31.6529 47.8461 27.579 48.9667C27.3991 49.0196 27.2298 49.083 27.0499 49.1359C26.9864 49.1042 26.923 49.083 26.8489 49.0513C22.4893 47.8672 18.1297 46.6725 13.7702 45.4672C13.5903 45.4144 13.3575 45.1289 13.3363 44.928C13.0295 41.6294 12.7543 38.3307 12.4581 34.9687H19.1138C19.2302 36.2902 19.3572 37.6329 19.463 38.9862C19.5582 40.2338 19.5477 40.2338 20.7222 40.551C22.8279 41.1113 24.9442 41.6611 27.0499 42.2109L27.0288 42.158C29.3355 41.5448 31.6423 40.9422 33.9491 40.2867C34.1607 40.2232 34.4041 39.8849 34.4358 39.6523C34.5734 38.6373 34.6475 37.6118 34.7321 36.5968C34.8697 34.9581 35.0072 33.3193 35.1554 31.6066H27.0288L27.0499 31.5643C26.997 31.5643 26.9335 31.5643 26.8806 31.5643H12.1512C11.9501 29.3758 11.7597 27.2084 11.5586 24.9776H26.8912C26.9441 24.9776 27.0076 24.9776 27.0605 24.9776L27.0394 24.9353H35.7479C35.949 22.6622 36.15 20.4419 36.3511 18.1794H27.0288L27.0499 18.1371C26.997 18.1371 26.9335 18.1371 26.8806 18.1371C21.664 18.1477 16.4473 18.1477 11.2306 18.1583C11.1565 18.1583 11.0825 18.1266 10.9449 18.0843C10.7544 15.9275 10.5534 13.7707 10.3629 11.5504H26.8806C26.9335 11.5504 26.997 11.5504 27.0499 11.5504L27.0288 11.5081H43.6206C43.5042 12.9883 43.3878 14.3839 43.2714 15.7794Z" fill="white"/>
</svg>
