<svg width="60" height="64" viewBox="0 0 60 64" fill="none" xmlns="http://www.w3.org/2000/svg">
<path d="M22.3008 58.0955C18.0214 56.8919 14.2577 54.6757 10.9717 51.5808C9.94008 51.9438 8.88932 52.3068 7.81946 52.6506C7.32274 52.8035 6.82601 52.7462 6.31019 52.5551C5.39316 52.2112 4.83913 51.5426 4.43793 50.7211C3.88389 49.6321 3.17702 48.6387 2.62298 47.5497C2.12626 46.5371 1.40028 45.6583 0.979981 44.6076C0.76983 44.0917 0.215794 43.7479 0.215794 43.0983C-0.280928 42.2959 0.196689 41.589 0.483259 40.8821C0.559678 40.6911 0.655201 40.4427 0.827144 40.3663C1.51491 40.0606 1.8588 39.3729 2.43194 38.9526C2.6994 38.7615 2.98597 38.5514 3.29165 38.3221C2.85224 36.1251 2.47015 33.928 2.47015 31.6737C2.47015 29.4384 2.87135 27.2796 3.29165 25.1399C2.54657 24.4521 1.8588 23.7835 1.13282 23.153C0.387736 22.5034 -0.051672 21.701 0.0438514 20.8604C0.101166 20.4019 0.234898 19.9052 0.464155 19.5231C1.17103 18.3959 1.82059 17.2114 2.50836 16.0652C3.06239 15.1481 3.54001 14.1929 4.15136 13.295C4.47614 12.8365 4.66719 12.3015 4.99197 11.8239C5.62242 10.926 6.88333 10.4866 7.91498 10.7923C8.83201 11.0597 9.69172 11.4609 10.6278 11.6329C10.7234 11.652 10.7998 11.7857 10.8953 11.8812C14.2004 8.80537 17.964 6.60833 22.2817 5.32832C22.4536 4.81249 22.4919 4.25845 22.702 3.72352C22.8548 3.32232 22.8166 2.8256 22.8931 2.38619C23.1032 1.23991 23.8101 0.571249 24.8226 0.227364C25.1856 0.112736 25.5486 -0.00189209 25.988 -0.00189209C28.6627 0.0363173 31.3373 0.0363173 34.012 -0.00189209C34.7762 -0.00189209 35.4257 0.303783 36.0371 0.647667C36.5911 0.934238 36.8968 1.54559 37.0496 2.11873C37.3171 3.16949 37.4699 4.23935 37.6801 5.34742C41.9786 6.57012 45.7423 8.76716 49.0283 11.8621C50.0599 11.4991 51.1107 11.1361 52.1805 10.7923C52.6773 10.6394 53.174 10.6967 53.6898 10.8878C54.6068 11.2317 55.1609 11.9003 55.5621 12.7218C56.1161 13.8108 56.823 14.8042 57.377 15.8932C57.8737 16.9058 58.5997 17.7846 59.02 18.8353C59.2302 19.3512 59.7842 19.695 59.7842 20.3446C60.2809 21.147 59.8033 21.8539 59.5167 22.5607C59.4403 22.7518 59.3448 23.0002 59.1729 23.0766C58.4851 23.3823 58.1412 24.07 57.5681 24.4903C57.3006 24.6814 57.014 24.8915 56.7084 25.1208C57.1478 27.3178 57.5299 29.5149 57.5299 31.7692C57.5299 34.0045 57.186 36.1633 56.7084 38.303C57.4534 38.9908 58.1412 39.6594 58.8672 40.2899C59.6123 40.9395 60.0517 41.7419 59.9562 42.5825C59.8988 43.041 59.7842 43.5377 59.5359 43.9198C58.8481 45.0279 58.1985 46.1741 57.5299 47.3013C56.6893 48.696 56.0015 50.2052 55.0271 51.5235C54.8552 52.2494 54.1674 52.3068 53.6707 52.5742C53.1358 52.8608 52.6008 52.7844 52.0086 52.6124C51.1298 52.3641 50.2892 51.9247 49.3722 51.81C49.2766 51.7909 49.2002 51.6572 49.1047 51.5617C45.7996 54.6757 42.0551 56.8919 37.6801 58.1337C37.4699 59.1653 37.2789 60.2352 37.0496 61.286C36.8204 62.3176 36.1326 62.9672 35.1583 63.2728C34.7953 63.3875 34.4132 63.5021 33.9929 63.5021C31.3182 63.4639 28.6436 63.4639 25.9689 63.5021C25.2047 63.5021 24.5552 63.1964 23.9438 62.8525C23.3898 62.566 23.065 61.9546 22.9504 61.3815C22.7402 60.2543 22.5301 59.2036 22.3008 58.0955ZM23.5426 41.2642C23.9247 41.0541 24.3641 40.9204 24.3832 40.4618C24.4214 39.7741 24.517 39.0672 24.3641 38.4176C24.0967 37.3096 23.619 36.2397 23.3325 35.1316C23.1414 34.4248 22.7211 33.7561 22.7402 32.9919C22.1289 31.4826 21.7468 29.897 21.2309 28.3686C20.8106 27.1077 20.505 25.8085 20.0465 24.5667C19.7981 23.879 19.7408 23.1148 19.2823 22.5034C19.2441 22.4461 19.225 22.4079 19.225 22.4079C18.7091 22.064 18.1742 22.1787 17.7157 22.1787C17.4482 22.427 17.219 22.6372 17.0088 22.8282C16.9897 23.4396 16.5503 23.9172 16.6267 24.5094C15.9581 25.9996 15.6715 27.6044 15.1174 29.1328C14.8309 29.9161 14.6589 30.7185 14.4297 31.5209C14.2195 32.3232 13.761 33.0492 13.761 33.9089C13.035 35.5328 12.672 37.2714 12.1371 38.9717C12.0034 39.392 11.927 39.7932 12.1944 40.1944C12.2709 40.309 12.2326 40.4809 12.2326 40.4618C12.5383 40.7866 12.7676 41.0159 12.9586 41.2451C13.3216 41.2451 13.7037 41.2451 14.1049 41.2451C14.3724 40.9013 14.6398 40.5765 14.8882 40.2517C14.8309 39.1627 15.0601 38.4367 15.5569 37.2714C17.4291 37.2714 19.3014 37.2714 21.1736 37.2714C21.3265 37.8827 21.4029 38.475 21.613 39.029C21.7086 39.2582 21.8041 39.4875 21.7659 39.7168C21.7086 40.4236 21.9378 40.9777 22.7402 41.2451C22.9313 41.2642 23.2178 41.2642 23.5426 41.2642ZM28.0131 41.2642C28.5289 41.226 29.1212 41.3789 29.5415 40.9586C29.6943 40.7675 29.8281 40.5765 30.0191 40.309C30.0191 38.3985 30.0191 36.3925 30.0191 34.3866C31.4137 34.3866 32.7893 34.3292 34.1457 34.4057C34.9672 34.4439 35.6359 34.1955 36.2854 33.7943C36.5911 33.6033 36.8586 33.3167 37.126 33.0492C37.8329 32.3615 38.1768 31.5208 38.1959 30.5274C38.1959 28.9608 38.1959 27.4133 38.1959 25.8468C38.1959 25.6175 38.1386 25.3691 38.0813 25.1399C37.8711 24.3184 37.4317 23.707 36.8395 23.1721C36.1517 22.5416 35.3493 22.1596 34.3941 22.1596C32.2544 22.1596 30.1337 22.1596 27.9749 22.1596C27.7648 22.3888 27.5546 22.6181 27.3062 22.8473C27.3062 28.7316 27.3062 34.654 27.3062 40.5956C27.5546 40.8057 27.7839 41.035 28.0131 41.2642ZM41.7685 41.2642C43.0867 41.2642 44.424 41.2642 45.7423 41.2642C45.9715 41.035 46.2008 40.8057 46.43 40.5956C46.43 40.2326 46.43 39.8887 46.43 39.5257C46.43 39.4875 46.43 39.4684 46.43 39.4493C46.1435 38.9144 45.7041 38.5896 45.1309 38.5323C45.1309 33.9663 45.1309 29.4193 45.1309 24.9679C45.5512 24.7578 45.9142 24.5667 46.3345 24.3375C46.3918 23.8408 46.43 23.3249 46.4682 22.9619C46.1626 22.6181 45.9524 22.3697 45.7805 22.1787C44.4049 22.1787 43.0676 22.1787 41.8831 22.1787C41.5583 22.4652 41.3291 22.6754 41.0425 22.9428C41.0998 23.4014 41.1762 23.9172 41.2336 24.3566C41.6921 24.5858 42.0551 24.7769 42.3798 24.9488C42.3798 29.4958 42.3798 34.0427 42.3798 38.5514C42.1888 38.5896 41.9786 38.5514 41.9022 38.6469C41.6348 38.9144 41.1762 38.9908 41.0807 39.4302C41.0807 39.8123 41.0807 40.1944 41.0807 40.5765C41.31 40.8057 41.5392 41.035 41.7685 41.2642Z" fill="white"/>
</svg>
