<svg width="60" height="61" viewBox="0 0 60 61" fill="none" xmlns="http://www.w3.org/2000/svg">
<path d="M58.8783 28.1083L32.6466 1.87665C31.1458 0.375834 28.6662 0.375834 27.1654 1.87665L21.7494 7.29264L28.6662 14.2094C30.2975 13.6874 32.1246 14.0137 33.3644 15.3187C34.6695 16.6238 34.9958 18.4509 34.4737 20.0822L41.1295 26.738C42.7608 26.216 44.5879 26.5422 45.893 27.8473C47.7201 29.6091 47.7201 32.5455 45.893 34.3726C44.0659 36.1997 41.1948 36.1997 39.3677 34.3726C37.9974 33.0023 37.6711 31.0447 38.3889 29.3481L32.1899 23.1491V39.4623C32.6466 39.6581 33.0382 39.9843 33.4297 40.3106C35.2568 42.0724 35.2568 45.0088 33.4297 46.8359C31.6026 48.5977 28.7315 48.5977 26.9044 46.8359C25.0773 45.0088 25.0773 42.1377 26.9044 40.3106C27.3612 39.8538 27.8832 39.5275 28.4052 39.3318V22.8228C27.8832 22.6271 27.3612 22.2355 26.9044 21.844C25.5341 20.4737 25.2078 18.5161 25.9256 16.8196L19.0741 10.0333L1.12952 27.9778C-0.371298 29.4786 -0.371298 31.9582 1.12952 33.459L27.2959 59.6254C28.7967 61.1262 31.2763 61.1262 32.7772 59.6254L58.813 33.5895C60.3791 32.0235 60.3791 29.6091 58.8783 28.1083Z" fill="white"/>
</svg>
