<svg width="60" height="61" viewBox="0 0 60 61" fill="none" xmlns="http://www.w3.org/2000/svg">
<path d="M7.9 10.3021V50.8021C3 45.4021 0 38.3021 0 30.5021C0 22.7021 3 15.6021 7.9 10.3021Z" fill="white"/>
<path d="M11.1001 14.7021L28.4001 49.4021H11.1001V14.7021Z" fill="white"/>
<path d="M30 45.5021L13 11.6021H47L30 45.5021Z" fill="white"/>
<path d="M29.9998 0.502075C37.7998 0.502075 44.8998 3.50208 50.1998 8.40208H9.7998C15.0998 3.50208 22.1998 0.502075 29.9998 0.502075Z" fill="white"/>
<path d="M48.9001 49.4021H31.6001L48.9001 14.7021V49.4021Z" fill="white"/>
<path d="M50.1998 52.6021C44.8998 57.5021 37.7998 60.5021 29.9998 60.5021C22.1998 60.5021 15.0998 57.5021 9.7998 52.6021H50.1998Z" fill="white"/>
<path d="M52.1001 50.7021V10.3021C57.0001 15.6021 60.0001 22.7021 60.0001 30.5021C60.0001 38.3021 57.0001 45.4021 52.1001 50.7021Z" fill="white"/>
<path d="M11.1001 14.702L28.4001 49.402H11.1001V14.702Z" fill="white"/>
<path d="M30 45.5021L13 11.6021H47L30 45.5021Z" fill="white"/>
<path d="M31.6001 49.402L48.9001 14.702V49.402H31.6001Z" fill="white"/>
<path d="M13 11.6021H47L30 45.5021L13 11.6021Z" fill="white"/>
</svg>
